<svg width="96" height="27" viewBox="0 0 96 27" fill="none" xmlns="http://www.w3.org/2000/svg">
<path d="M76.1052 7.84257L79.6569 5.21118H67.7663V20.9738H79.6569V18.3423H71.1636V14.3178H78.4215V11.6865H71.1636V7.84257H76.1052Z" fill="#21A038"/>
<path d="M58.7839 11.3511H54.666V7.84257H61.2548L64.8065 5.21118H51.2686V20.9738H58.3464C62.31 20.9738 64.6005 19.1679 64.6005 16.0205C64.6005 13.0021 62.5416 11.3511 58.7839 11.3511ZM58.2177 18.3423H54.666V13.9825H58.2177C60.3797 13.9825 61.3835 14.7048 61.3835 16.1753C61.3835 17.6458 60.3025 18.3423 58.2177 18.3423Z" fill="#21A038"/>
<path d="M89.2825 5.21118H82.8226V20.9738H86.2198V16.5106H89.3083C93.4263 16.5106 96 14.3436 96 10.8609C96 7.3782 93.4263 5.21118 89.2825 5.21118ZM89.2054 13.8793H86.1942V7.84257H89.2054C91.3931 7.84257 92.577 8.92607 92.577 10.8609C92.577 12.7958 91.3931 13.8793 89.2054 13.8793Z" fill="#21A038"/>
<path d="M45.452 17.5683C44.5513 18.0585 43.5475 18.3165 42.5179 18.3165C39.4552 18.3165 37.2418 16.1237 37.2418 13.1054C37.2418 10.087 39.4552 7.8942 42.5179 7.8942C43.6246 7.8684 44.7056 8.22956 45.6065 8.87452L48.0515 7.06865L47.897 6.91386C46.4815 5.64976 44.5769 5.00482 42.4151 5.00482C40.0729 5.00482 37.9367 5.80455 36.3925 7.24924C34.8482 8.74553 33.9731 10.8352 34.0247 13.0022C33.9989 15.195 34.8482 17.3105 36.3925 18.8582C38.0139 20.3805 40.1758 21.2317 42.3892 21.1802C44.8343 21.1802 46.9705 20.3288 48.4118 18.7809L46.2241 17.1557L45.452 17.5683Z" fill="#21A038"/>
<path d="M23.3951 5.10797C24.0128 5.90772 24.5275 6.78485 24.9651 7.71357L13.0745 16.5106L8.08145 13.3633V9.59683L13.0487 12.7184L23.3951 5.10797Z" fill="#21A038"/>
<path d="M3.01126 13.1053C3.01126 12.9247 3.01126 12.7699 3.037 12.5894L0.0257373 12.4346C0.0257373 12.641 0 12.8731 0 13.0795C0 16.6913 1.46703 19.9676 3.83485 22.341L5.97104 20.1997C4.1437 18.3938 3.01126 15.8915 3.01126 13.1053Z" fill="url(#paint0_linear_2_62)"/>
<path d="M13.0488 3.04412C13.229 3.04412 13.3834 3.04411 13.5636 3.06992L13.718 0.0515545C13.5121 0.0515545 13.2805 0.0257568 13.0746 0.0257568C9.47136 0.0257568 6.20273 1.49624 3.8349 3.86965L5.97109 6.01088C7.7727 4.17922 10.295 3.04412 13.0488 3.04412Z" fill="url(#paint1_linear_2_62)"/>
<path d="M13.0487 23.1665C12.8686 23.1665 12.7142 23.1665 12.534 23.1407L12.3796 26.1592C12.5855 26.1592 12.8171 26.1848 13.023 26.1848C16.6262 26.1848 19.8948 24.7144 22.2626 22.341L20.1264 20.1998C18.3248 22.0572 15.8284 23.1665 13.0487 23.1665Z" fill="url(#paint2_linear_2_62)"/>
<path d="M18.7111 4.79842L21.259 2.91517C19.0199 1.10931 16.1631 0 13.0489 0V3.01835C15.1593 3.04416 17.1154 3.6891 18.7111 4.79842Z" fill="url(#paint3_linear_2_62)"/>
<path d="M26.1234 13.1053C26.1234 12.3056 26.0462 11.5316 25.9175 10.7577L23.1122 12.8473C23.1122 12.9247 23.1122 13.0279 23.1122 13.1053C23.1122 16.0721 21.8252 18.7293 19.7921 20.5609L21.8252 22.8053C24.4504 20.4319 26.1234 16.9493 26.1234 13.1053Z" fill="#21A038"/>
<path d="M13.0487 23.1665C10.089 23.1665 7.43801 21.8766 5.61067 19.8386L3.37152 21.8766C5.76509 24.5337 9.21388 26.1848 13.0487 26.1848V23.1665Z" fill="url(#paint4_linear_2_62)"/>
<path d="M6.33137 5.64977L4.29813 3.40533C1.64719 5.80454 0 9.26147 0 13.1054H3.01126C3.01126 10.1644 4.29813 7.48142 6.33137 5.64977Z" fill="url(#paint5_linear_2_62)"/>
<defs>
<linearGradient id="paint0_linear_2_62" x1="3.51352" y1="21.9737" x2="0.467808" y2="13.0554" gradientUnits="userSpaceOnUse">
<stop offset="0.1444" stop-color="#F2E913"/>
<stop offset="0.3037" stop-color="#E7E518"/>
<stop offset="0.5823" stop-color="#CADB26"/>
<stop offset="0.891" stop-color="#A3CD39"/>
</linearGradient>
<linearGradient id="paint1_linear_2_62" x1="4.69326" y1="3.52905" x2="12.4883" y2="0.519878" gradientUnits="userSpaceOnUse">
<stop offset="0.0592" stop-color="#0FA8E0"/>
<stop offset="0.5385" stop-color="#0099F9"/>
<stop offset="0.9234" stop-color="#0291EB"/>
</linearGradient>
<linearGradient id="paint2_linear_2_62" x1="12.2028" y1="23.6179" x2="21.5034" y2="21.4886" gradientUnits="userSpaceOnUse">
<stop offset="0.1226" stop-color="#A3CD39"/>
<stop offset="0.2846" stop-color="#86C339"/>
<stop offset="0.8693" stop-color="#21A038"/>
</linearGradient>
<linearGradient id="paint3_linear_2_62" x1="12.4302" y1="1.92247" x2="20.1598" y2="4.33845" gradientUnits="userSpaceOnUse">
<stop offset="0.0566" stop-color="#0291EB"/>
<stop offset="0.79" stop-color="#0C8ACB"/>
</linearGradient>
<linearGradient id="paint4_linear_2_62" x1="4.13718" y1="22.3548" x2="12.4365" y2="25.4961" gradientUnits="userSpaceOnUse">
<stop offset="0.1324" stop-color="#F2E913"/>
<stop offset="0.2977" stop-color="#EBE716"/>
<stop offset="0.5306" stop-color="#D9E01F"/>
<stop offset="0.8023" stop-color="#BBD62D"/>
<stop offset="0.9829" stop-color="#A3CD39"/>
</linearGradient>
<linearGradient id="paint5_linear_2_62" x1="2.30729" y1="13.4699" x2="5.60074" y2="4.7911" gradientUnits="userSpaceOnUse">
<stop offset="0.0698" stop-color="#A3CD39"/>
<stop offset="0.2599" stop-color="#81C55F"/>
<stop offset="0.9216" stop-color="#0FA8E0"/>
</linearGradient>
</defs>
</svg>
